<?xml version="1.0"?>
<svg xmlns="http://www.w3.org/2000/svg" viewBox="0 0 512 512" width="512" height="512"><g id="Stopwatch"><path d="M414.392,121.608A222.367,222.367,0,0,0,296,59.552V48h16a8,8,0,0,0,8-8V16a8,8,0,0,0-8-8H200a8,8,0,0,0-8,8V40a8,8,0,0,0,8,8h16V59.552a221.655,221.655,0,0,0-99.757,45.378L99.313,88l10.344-10.343A8,8,0,0,0,98.343,66.343l-32,32a8,8,0,0,0,11.314,11.314L88,99.313,104.087,115.4c-2.191,2.026-4.357,4.086-6.479,6.208A224,224,0,0,0,414.392,438.392a224,224,0,0,0,0-316.784ZM208,24h96v8H208Zm24,32V48h48v8Zm24,432C141.309,488,48,394.691,48,280S141.309,72,256,72s208,93.309,208,208S370.691,488,256,488Z"/><path d="M256,88C150.131,88,64,174.131,64,280s86.131,192,192,192,192-86.131,192-192S361.869,88,256,88ZM385.918,398.605l-16.781-16.781a8,8,0,0,0-11.313,11.313l16.781,16.781A175.319,175.319,0,0,1,264,455.81V432a8,8,0,0,0-16,0v23.81a175.319,175.319,0,0,1-110.6-45.892l16.781-16.781a8,8,0,0,0-11.313-11.313l-16.781,16.781A175.319,175.319,0,0,1,80.19,288H104a8,8,0,0,0,0-16H80.19a175.319,175.319,0,0,1,45.892-110.6l16.781,16.781a8,8,0,0,0,11.313-11.313L137.4,150.082A175.319,175.319,0,0,1,248,104.19V128a8,8,0,0,0,16,0V104.19a175.319,175.319,0,0,1,110.605,45.892l-16.781,16.781a8,8,0,1,0,11.313,11.313L385.918,161.4A175.319,175.319,0,0,1,431.81,272H408a8,8,0,0,0,0,16h23.81A175.319,175.319,0,0,1,385.918,398.605Z"/><path d="M263.88,257.335A8.043,8.043,0,0,0,264,256V168a8,8,0,0,0-16,0v88a8.043,8.043,0,0,0,.12,1.335,23.994,23.994,0,0,0,0,45.33A8.043,8.043,0,0,0,248,304v8a8,8,0,0,0,16,0v-8a8.043,8.043,0,0,0-.12-1.335,23.994,23.994,0,0,0,0-45.33ZM256,288a8,8,0,1,1,8-8A8.009,8.009,0,0,1,256,288Z"/></g></svg>
