<svg id="Capa_1" enable-background="new 0 0 512.788 512.788" height="512" viewBox="0 0 512.788 512.788" width="512" xmlns="http://www.w3.org/2000/svg"><g><path d="m115.027 279.618c0 34.579 12.471 67.986 35.114 94.065 6.768 7.795 10.494 18.005 10.494 28.752l.005 30.719c-6.663 1.412-11.679 7.339-11.679 14.417v50.48c0 8.126 6.611 14.736 14.737 14.736h185.396c8.126 0 14.737-6.61 14.737-14.736v-50.48c0-7.078-5.016-13.006-11.68-14.417v-30.72c0-10.746 3.727-20.956 10.494-28.751 21.091-24.29 33.508-55.348 34.964-87.452.188-4.138-3.015-7.645-7.152-7.832-4.133-.154-7.645 3.014-7.832 7.152-1.304 28.742-12.422 56.549-31.306 78.298-9.137 10.522-14.168 24.226-14.168 38.585v30.4h-107.395c-4.143 0-7.5 3.357-7.5 7.5s3.357 7.5 7.5 7.5h119.076v49.953h-184.871v-49.953h30.795c4.143 0 7.5-3.357 7.5-7.5s-3.357-7.5-7.5-7.5h-19.116l-.005-30.4c0-14.359-5.031-28.062-14.168-38.585-20.274-23.352-31.44-53.266-31.44-84.231v-152.014c0-9.489 6.742-17.433 15.687-19.295v99.45c0 4.143 3.357 7.5 7.5 7.5s7.5-3.357 7.5-7.5c0-182.281 0-90.396 0-192.293 0-.258.209-.467.467-.467h171.048c.258 0 .467.209.467.467v189.594h-57.276c-19.139 0-34.709 15.57-34.709 34.708 0 19.139 15.57 34.709 34.709 34.709h27.455c-3.062 3.48-5.585 7.445-7.438 11.763h-134.257c-.258 0-.467-.209-.467-.467v-43.013c0-4.143-3.357-7.5-7.5-7.5s-7.5 3.357-7.5 7.5v43.013c0 8.528 6.938 15.467 15.467 15.467h130.764c-1.328 25.315 18.899 46.441 44.04 46.441 4.143 0 7.5-3.357 7.5-7.5s-3.357-7.5-7.5-7.5c-16.047 0-29.103-13.055-29.103-29.102s13.056-29.103 29.103-29.103c4.143 0 7.5-3.357 7.5-7.5s-3.357-7.5-7.5-7.5h-60.566c-10.867 0-19.709-8.842-19.709-19.709s8.842-19.708 19.709-19.708h87.634c10.867 0 19.708 8.841 19.708 19.709l.001 10.598c0 4.142 3.358 7.499 7.501 7.499 4.142 0 7.499-3.358 7.499-7.501l-.001-10.597c0-19.138-15.57-34.708-34.708-34.708h-15.357v-189.592c0-8.529-6.939-15.467-15.467-15.467h-171.048c-8.528 0-15.467 6.938-15.467 15.467v77.662c-17.251 2-30.687 16.699-30.687 34.476v152.013z"/><path d="m198.831 178.233h98.759c13.593 0 22.104-14.711 15.298-26.497l-49.38-85.528c-6.796-11.772-23.792-11.787-30.596 0l-49.38 85.528c-6.797 11.771 1.686 26.497 15.299 26.497zm-2.309-18.997 49.38-85.528c1.025-1.776 3.583-1.789 4.615 0l49.38 85.528c1.025 1.776-.242 3.997-2.308 3.997h-98.759c-2.066 0-3.333-2.221-2.308-3.997z"/><path d="m248.209 128.233c4.143 0 7.5-3.357 7.5-7.5v-16.022c0-4.143-3.357-7.5-7.5-7.5s-7.5 3.357-7.5 7.5v16.022c0 4.143 3.358 7.5 7.5 7.5z"/><circle cx="248.209" cy="145.733" r="7.5"/></g></svg>