<?xml version="1.0" encoding="iso-8859-1"?>
<!-- Generator: Adobe Illustrator 18.0.0, SVG Export Plug-In . SVG Version: 6.00 Build 0)  -->
<!DOCTYPE svg PUBLIC "-//W3C//DTD SVG 1.1//EN" "http://www.w3.org/Graphics/SVG/1.1/DTD/svg11.dtd">
<svg version="1.1" id="Capa_1" xmlns="http://www.w3.org/2000/svg" xmlns:xlink="http://www.w3.org/1999/xlink" x="0px" y="0px"
	 viewBox="0 0 462.03 462.03" style="enable-background:new 0 0 462.03 462.03;" xml:space="preserve">
<path d="M460.11,125.701c-2.855-8.413-10.232-18.963-29.158-21.453c-11.519-1.516-20.893,0.888-27.857,7.144
	c-10.681,9.595-12.281,25.283-12.505,30.872l-4.13,1.848c-4.176-4.304-9.472-6.636-15.78-6.888
	c-21.242-0.852-68.979,4.11-113.877,28.001c-22.437,0.192-50.196,8.892-62.561,28.051c-13.018,11.789-56.672,31.431-62.296,33.936
	c-0.033-0.001-0.067-0.001-0.102-0.001c-4.901,0-29.834,1.021-54.169,20.676c-8.738,7.058-15.471,13.006-20.88,17.786
	c-10.212,9.023-15.838,13.994-21.534,14.564c-3.35,0.335-7.126,0.474-11.233,0.415c-6.407-0.112-11.956,4.153-13.509,10.352
	L0.249,332.089c-0.61,2.456-0.086,5.021,1.439,7.039c1.525,2.017,3.849,3.221,6.379,3.303l10.328,0.32
	c3.569,0.115,6.763-1.972,8.08-5.314c1.317-3.342,0.424-7.032-2.282-9.404l-2.203-1.925l10.946-10.604l-0.407,1.625
	c-0.61,2.456-0.086,5.022,1.439,7.04c1.525,2.017,3.849,3.22,6.379,3.302l10.328,0.32c0.093,0.003,0.186,0.004,0.278,0.004
	c3.475,0,6.518-2.064,7.801-5.318c1.318-3.342,0.425-7.033-2.281-9.405l-2.204-1.924l26.752-25.918l45.008-18.951
	c3.745,0.324,19.588,1.371,29.245-3.073c13.883-0.588,71.319-17.098,84.858-25.429c20.803-12.802,38.252-20.863,46.679-21.565
	c7.303-0.613,33.658-4.105,52.29-6.624c-0.049,7.504,0.027,25.214,1.659,35.255c0.373,2.295,0.329,4.635-0.132,6.953
	c-2.27,11.424-4.876,37.132-3.262,56.029c0.543,6.36,5.574,11.455,11.846,12.167c0.033,6.397,0.154,11.82,0.353,15.397
	c0.627,11.291,3.256,22.833,17.995,22.833c4.868,0,22.208-2.18,35.897-4.008c2.518-0.336,4.504-2.065,5.184-4.512
	c0.671-2.414-0.16-4.986-2.117-6.552c-6.367-5.093-14.357-8.046-22.496-8.316l-12.709-0.42c-0.782-0.026-1.257-0.466-1.47-0.727
	c-0.213-0.261-0.551-0.814-0.421-1.59c0.493-2.948,1.199-7.005,2.072-11.63c3.227-0.012,6.583-0.044,10.022-0.1
	c2.577-0.041,4.827-1.531,5.873-3.888c1.041-2.349,0.637-5.005-1.056-6.934c-4.054-4.62-7.622-7.37-10.79-8.321
	c1.99-8.407,4.283-16.546,6.706-22.185c2.211-5.137,3.299-10.588,3.234-16.202c-0.206-17.25-0.794-45.277-0.91-50.742
	c2.22-3.441,10.315-16.869,11.811-31.71l6.682-2.43l1.75,3.503c1.182,2.362,3.217,4.109,5.73,4.919
	c0.985,0.317,1.995,0.475,2.999,0.475c1.554-0.001,3.094-0.377,4.512-1.122c10.409-5.468,28.878-15.647,35.617-22.387
	C459.67,157.355,465.012,140.138,460.11,125.701z M47.752,309.107c-0.602,0.584-0.933,1.394-0.911,2.232
	c0.021,0.839,0.394,1.63,1.025,2.182l4.656,4.066c1.18,1.034,0.797,2.319,0.651,2.689c-0.146,0.368-0.726,1.577-2.311,1.518
	l-10.326-0.32c-0.967-0.031-1.531-0.592-1.782-0.924c-0.251-0.332-0.638-1.03-0.404-1.968l2.755-10.992l10.137-9.821l14.525-6.116
	L47.752,309.107z M154.56,257.222c-0.466,0-0.925,0.108-1.342,0.317c-9.09,4.545-27.164,2.719-27.345,2.699
	c-0.508-0.052-1.013,0.024-1.478,0.219l-76,32c-0.343,0.144-0.656,0.351-0.923,0.61l-32,31c-0.603,0.584-0.934,1.393-0.912,2.232
	c0.021,0.839,0.394,1.63,1.025,2.182l4.655,4.067c1.18,1.034,0.797,2.319,0.651,2.688c-0.146,0.369-0.758,1.559-2.311,1.518
	l-10.325-0.32c-0.967-0.031-1.532-0.592-1.783-0.924c-0.251-0.332-0.638-1.031-0.404-1.97l10.27-41.079
	c0.861-3.437,3.919-5.811,7.469-5.811c0.042,0,0.085,0,0.128,0.001c4.333,0.065,8.348-0.087,11.923-0.444
	c7.621-0.762,13.762-6.188,24.909-16.037c5.365-4.74,12.042-10.64,20.677-17.614c24.746-19.987,50.75-19.341,51.004-19.336
	c0.461,0.021,0.905-0.069,1.319-0.252c1.851-0.814,41.22-18.202,59.51-31.294c3.707,8.263,13.431,28.953,22.423,39.726
	C193.444,248.993,162.397,257.222,154.56,257.222z M236.988,232.667c-2.938,1.808-8.397,4.113-15.18,6.584
	c-9.175-9.628-20.471-34.222-23.667-41.414c0.155-0.139,0.817-0.793,0.956-1.012c7.884-12.482,28.389-25.066,56.682-25.578
	c5.11,9.718,15.129,32.154,13.131,44.255C257.593,220.403,245.148,227.645,236.988,232.667z M343.346,307.314
	c-1.497-17.522,0.878-42.823,3.168-54.35c0.601-3.023,0.658-6.08,0.169-9.085c-1.604-9.868-1.624-28.341-1.572-35.107
	c3.174-0.431,5.962-0.812,8.151-1.112c-0.131,3.056-0.292,6.369-0.461,9.818c-0.73,14.936-1.484,30.356-0.331,36.628
	c-2.211,8.447-3.197,37.768-3.263,59.819C346.066,313.265,343.626,310.595,343.346,307.314z M381.83,313.502
	c0.059,0.066,0.214,0.244,0.08,0.545c-0.14,0.316-0.398,0.32-0.483,0.321c-2.994,0.048-5.921,0.078-8.757,0.093
	c0.482-2.396,0.998-4.87,1.544-7.368C375.722,307.684,378.254,309.427,381.83,313.502z M390.565,178.046
	c-0.937,15.933-11.373,31.325-11.477,31.477c-0.356,0.519-0.541,1.136-0.527,1.765c0.007,0.323,0.701,32.565,0.929,51.62
	c0.056,4.769-0.868,9.397-2.746,13.761c-6.093,14.177-11.284,42.794-13.233,54.438c-0.381,2.272,0.237,4.598,1.695,6.381
	c1.458,1.782,3.614,2.848,5.915,2.924l12.709,0.42c6.854,0.227,13.583,2.714,18.946,7.004c0.054,0.043,0.128,0.103,0.085,0.261
	c-0.042,0.15-0.125,0.162-0.198,0.171c-18.818,2.514-31.613,3.956-35.102,3.956c-4.664,0-11.051,0-12.005-17.167
	c-1.065-19.19,0.168-71.837,2.851-79.885c0.181-0.541,0.203-1.123,0.064-1.677c-1.191-4.764-0.352-21.929,0.322-35.722
	c0.238-4.855,0.462-9.441,0.604-13.448c0.001-0.003,0.001-0.006,0.001-0.009c0.109-2.905,0.162-5.225,0.162-7.093
	c0-16.22-10.886-18.826-11.35-18.929c-1.607-0.357-3.243,0.655-3.603,2.272c-0.359,1.617,0.636,3.214,2.253,3.574
	c0.274,0.071,6.699,1.863,6.699,13.083c0,1.225-0.024,2.662-0.073,4.352c-13.823,1.896-57.552,7.852-67.176,8.658
	c-3.187,0.266-7.016,1.282-11.166,2.779c0.215-6.971-1.852-16.095-6.199-27.247c-2.72-6.979-5.643-12.976-7.332-16.277
	c37.729-19.511,82.571-27.316,108.826-26.267c4.984,0.199,8.951,1.99,12.128,5.475C391.483,158.474,390.575,177.867,390.565,178.046
	z M449.439,159.1c-4.513,4.512-16.966,12.282-34.166,21.318c-0.895,0.469-1.918,0.558-2.88,0.248
	c-0.967-0.312-1.749-0.983-2.203-1.891l-2.946-5.894c-0.682-1.363-2.276-1.999-3.709-1.478l-6.973,2.536
	c-0.201-5.926-1.319-16.597-6.347-24.933l4.571-2.045c1.104-0.494,1.803-1.601,1.773-2.81c-0.004-0.184-0.314-18.54,10.546-28.295
	c5.602-5.033,13.363-6.935,23.064-5.659c12.74,1.676,20.902,7.542,24.26,17.433C458.464,139.514,454.098,154.442,449.439,159.1z"/>
<g>
</g>
<g>
</g>
<g>
</g>
<g>
</g>
<g>
</g>
<g>
</g>
<g>
</g>
<g>
</g>
<g>
</g>
<g>
</g>
<g>
</g>
<g>
</g>
<g>
</g>
<g>
</g>
<g>
</g>
</svg>
