<?xml version="1.0"?>
<svg xmlns="http://www.w3.org/2000/svg" id="Icons" viewBox="0 0 74 74" width="512" height="512"><path d="M22.46,60.92a19.46,19.46,0,0,1,0-38.92H35a1,1,0,0,1,.832.445L37.535,25h6.93l1.7-2.555A1,1,0,0,1,47,22H70a1,1,0,0,1,.964,1.266l-4.47,16.22a1,1,0,0,1-.964.734H41.873c.032.431.047.838.047,1.24A19.482,19.482,0,0,1,22.46,60.92Zm0-36.92A17.46,17.46,0,1,0,39.92,41.46a17.284,17.284,0,0,0-.143-2.118,1,1,0,0,1,.992-1.122h24L68.688,24H47.535l-1.7,2.555A1,1,0,0,1,45,27H37a1,1,0,0,1-.832-.445L34.465,24Z"/><path d="M22.46,52A10.54,10.54,0,1,1,33,41.46,10.552,10.552,0,0,1,22.46,52Zm0-19.08A8.54,8.54,0,1,0,31,41.46,8.55,8.55,0,0,0,22.46,32.92Z"/><path d="M35.137,18a1,1,0,0,1-.939-.658l-2.546-7a1,1,0,1,1,1.879-.684l2.546,7A1,1,0,0,1,35.137,18Z"/><path d="M41.5,18a1,1,0,0,1-1-1V10a1,1,0,0,1,2,0v7A1,1,0,0,1,41.5,18Z"/><path d="M47.863,18a1,1,0,0,1-.939-1.342l2.546-7a1,1,0,1,1,1.879.684l-2.546,7A1,1,0,0,1,47.863,18Z"/></svg>
