<svg id="Capa_1" enable-background="new 0 0 512 512" height="512" viewBox="0 0 512 512" width="512" xmlns="http://www.w3.org/2000/svg"><g><path d="m494.5 60.513h-87.238c-4.143 0-7.5 3.358-7.5 7.5s3.357 7.5 7.5 7.5h87.238c1.379 0 2.5 1.122 2.5 2.5v45.527h-482v-45.527c0-1.378 1.121-2.5 2.5-2.5h355.238c4.143 0 7.5-3.358 7.5-7.5s-3.357-7.5-7.5-7.5h-355.238c-9.649 0-17.5 7.851-17.5 17.5v98.726c0 4.142 3.357 7.5 7.5 7.5s7.5-3.358 7.5-7.5v-38.198h25.046v34.541c0 9.649 7.851 17.5 17.5 17.5h96.022c9.649 0 17.5-7.851 17.5-17.5v-34.541h13.981v59.419c0 9.649 7.851 17.5 17.5 17.5h96.021c9.649 0 17.5-7.851 17.5-17.5v-59.419h13.976v132.237c0 9.649 7.851 17.5 17.5 17.5h96.022c9.649 0 17.5-7.851 17.5-17.5v-132.237h35.932v295.446c0 1.378-1.121 2.5-2.5 2.5h-33.432v-42.487c0-4.142-3.357-7.5-7.5-7.5s-7.5 3.358-7.5 7.5v42.487h-101.022v-116.488c0-1.378 1.121-2.5 2.5-2.5h96.022c1.379 0 2.5 1.122 2.5 2.5v40.684c0 4.142 3.357 7.5 7.5 7.5s7.5-3.358 7.5-7.5v-40.684c0-9.649-7.851-17.5-17.5-17.5h-96.022c-9.649 0-17.5 7.851-17.5 17.5v116.488h-13.978v-65.804c0-9.649-7.851-17.5-17.5-17.5h-96.022c-9.649 0-17.5 7.851-17.5 17.5v65.804h-13.976v-14.507c0-9.649-7.851-17.5-17.5-17.5h-96.02c-9.649 0-17.5 7.851-17.5 17.5v14.507h-22.55c-1.379 0-2.5-1.122-2.5-2.5v-222.726c0-4.142-3.357-7.5-7.5-7.5s-7.5 3.358-7.5 7.5v222.726c0 9.649 7.851 17.5 17.5 17.5h477c9.649 0 17.5-7.851 17.5-17.5v-355.974c0-9.649-7.851-17.5-17.5-17.5zm-338.432 112.568c0 1.378-1.121 2.5-2.5 2.5h-96.022c-1.379 0-2.5-1.122-2.5-2.5v-34.541h101.022zm145.002 24.879c0 1.378-1.121 2.5-2.5 2.5h-96.02c-1.379 0-2.5-1.122-2.5-2.5v-59.419h101.02zm144.998 72.817c0 1.378-1.121 2.5-2.5 2.5h-96.022c-1.379 0-2.5-1.122-2.5-2.5v-132.236h101.022zm-246.022 99.906c0-1.378 1.121-2.5 2.5-2.5h96.022c1.379 0 2.5 1.122 2.5 2.5v65.804h-101.022zm-144.996 51.297c0-1.378 1.121-2.5 2.5-2.5h96.021c1.379 0 2.5 1.122 2.5 2.5v14.507h-101.021z"/><path d="m47.433 92.027c-4.143 0-7.5 3.358-7.5 7.5s3.357 7.5 7.5 7.5h.113c4.143 0 7.5-3.358 7.5-7.5s-3.357-7.5-7.5-7.5z"/><path d="m70.076 92.027c-4.143 0-7.5 3.358-7.5 7.5s3.357 7.5 7.5 7.5h.112c4.143 0 7.5-3.358 7.5-7.5s-3.357-7.5-7.5-7.5z"/><path d="m92.72 92.027c-4.143 0-7.5 3.358-7.5 7.5s3.357 7.5 7.5 7.5h.112c4.143 0 7.5-3.358 7.5-7.5s-3.357-7.5-7.5-7.5z"/><path d="m464.567 107.027c4.143 0 7.5-3.358 7.5-7.5s-3.357-7.5-7.5-7.5h-13.956c-4.143 0-7.5 3.358-7.5 7.5s3.357 7.5 7.5 7.5z"/><path d="m57.546 391.5h96.022c9.649 0 17.5-7.851 17.5-17.5v-154.041c0-9.649-7.851-17.5-17.5-17.5h-96.022c-9.649 0-17.5 7.851-17.5 17.5v154.041c0 9.649 7.85 17.5 17.5 17.5zm-2.5-171.541c0-1.378 1.121-2.5 2.5-2.5h96.022c1.379 0 2.5 1.122 2.5 2.5v154.041c0 1.378-1.121 2.5-2.5 2.5h-96.022c-1.379 0-2.5-1.122-2.5-2.5z"/><path d="m202.546 340.206h96.022c9.649 0 17.5-7.851 17.5-17.5v-74.876c0-9.649-7.851-17.5-17.5-17.5h-96.022c-9.649 0-17.5 7.851-17.5 17.5v74.875c0 9.65 7.85 17.501 17.5 17.501zm-2.5-92.376c0-1.378 1.121-2.5 2.5-2.5h96.022c1.379 0 2.5 1.122 2.5 2.5v74.875c0 1.378-1.121 2.5-2.5 2.5h-96.022c-1.379 0-2.5-1.122-2.5-2.5z"/></g></svg>