<svg id="Capa_1" enable-background="new 0 0 512 512" height="512" viewBox="0 0 512 512" width="512" xmlns="http://www.w3.org/2000/svg"><g><path d="m504.5 203.424c4.143 0 7.5-3.358 7.5-7.5v-117.91c0-9.649-7.851-17.5-17.5-17.5h-313.197c-4.143 0-7.5 3.358-7.5 7.5s3.357 7.5 7.5 7.5h313.197c1.379 0 2.5 1.122 2.5 2.5v45.527h-482v-45.527c0-1.378 1.121-2.5 2.5-2.5h129.28c4.143 0 7.5-3.358 7.5-7.5s-3.357-7.5-7.5-7.5h-129.28c-9.649 0-17.5 7.851-17.5 17.5v355.973c0 9.649 7.851 17.5 17.5 17.5h477c9.649 0 17.5-7.851 17.5-17.5v-203.54c0-4.142-3.357-7.5-7.5-7.5s-7.5 3.358-7.5 7.5v203.539c0 1.378-1.121 2.5-2.5 2.5h-477c-1.379 0-2.5-1.122-2.5-2.5v-295.445h482v57.384c0 4.141 3.357 7.499 7.5 7.499z"/><path d="m47.433 92.027c-4.143 0-7.5 3.358-7.5 7.5s3.357 7.5 7.5 7.5h.113c4.143 0 7.5-3.358 7.5-7.5s-3.357-7.5-7.5-7.5z"/><path d="m70.076 92.027c-4.143 0-7.5 3.358-7.5 7.5s3.357 7.5 7.5 7.5h.112c4.143 0 7.5-3.358 7.5-7.5s-3.357-7.5-7.5-7.5z"/><path d="m92.72 92.027c-4.143 0-7.5 3.358-7.5 7.5s3.357 7.5 7.5 7.5h.112c4.143 0 7.5-3.358 7.5-7.5s-3.357-7.5-7.5-7.5z"/><path d="m464.567 107.027c4.143 0 7.5-3.358 7.5-7.5s-3.357-7.5-7.5-7.5h-13.956c-4.143 0-7.5 3.358-7.5 7.5s3.357 7.5 7.5 7.5z"/><path d="m78.537 354.94c-4.143 0-7.5 3.358-7.5 7.5v34.841c0 9.649 7.851 17.5 17.5 17.5h73.153c9.649 0 17.5-7.851 17.5-17.5v-222.563c0-9.649-7.851-17.5-17.5-17.5h-73.153c-9.649 0-17.5 7.851-17.5 17.5v153.2c0 4.142 3.357 7.5 7.5 7.5s7.5-3.358 7.5-7.5v-153.2c0-1.378 1.121-2.5 2.5-2.5h73.153c1.379 0 2.5 1.122 2.5 2.5v222.563c0 1.378-1.121 2.5-2.5 2.5h-73.153c-1.379 0-2.5-1.122-2.5-2.5v-34.841c0-4.142-3.357-7.5-7.5-7.5z"/><path d="m219.423 157.218c-9.649 0-17.5 7.851-17.5 17.5v222.563c0 9.649 7.851 17.5 17.5 17.5h73.153c9.649 0 17.5-7.851 17.5-17.5v-222.563c0-9.649-7.851-17.5-17.5-17.5zm75.653 17.5v222.563c0 1.378-1.121 2.5-2.5 2.5h-73.153c-1.379 0-2.5-1.122-2.5-2.5v-222.563c0-1.378 1.121-2.5 2.5-2.5h73.153c1.379 0 2.5 1.121 2.5 2.5z"/><path d="m350.309 157.218c-9.649 0-17.5 7.851-17.5 17.5v222.563c0 9.649 7.851 17.5 17.5 17.5h73.153c9.649 0 17.5-7.851 17.5-17.5v-222.563c0-9.649-7.851-17.5-17.5-17.5zm75.653 17.5v222.563c0 1.378-1.121 2.5-2.5 2.5h-73.153c-1.379 0-2.5-1.122-2.5-2.5v-222.563c0-1.378 1.121-2.5 2.5-2.5h73.153c1.379 0 2.5 1.121 2.5 2.5z"/></g></svg>