<?xml version="1.0" encoding="iso-8859-1"?>
<!-- Generator: Adobe Illustrator 16.0.0, SVG Export Plug-In . SVG Version: 6.00 Build 0)  -->
<!DOCTYPE svg PUBLIC "-//W3C//DTD SVG 1.1//EN" "http://www.w3.org/Graphics/SVG/1.1/DTD/svg11.dtd">
<svg version="1.1" id="Capa_1" xmlns="http://www.w3.org/2000/svg" xmlns:xlink="http://www.w3.org/1999/xlink" x="0px" y="0px"
	 width="31.979px" height="31.979px" viewBox="0 0 31.979 31.979" style="enable-background:new 0 0 31.979 31.979;"
	 xml:space="preserve">
<g>
	<g>
		<circle cx="10.085" cy="4.501" r="4.501"/>
		<path d="M27.763,11.48h-1.25V7.814h-2.959V6.896h-1.813c0-0.574-0.483-1.041-1.082-1.041c-0.6,0-1.084,0.467-1.084,1.041h-1.812
			v0.918h-3.417v1.87L14.257,9.68h-2.533l-1.717,1.99L8.348,9.68l-3.643,0.492l-0.238,8.276h1.547l0.082,1.68h0.236v1.026v0.755
			v8.014h-0.31l-1.807,0.39v1.666h1.537l1.796-0.293l0.017,0.293h1.987v-1.855v-0.2v-8.014h1.133v8.014v0.2v1.855h1.99l0.016-0.293
			l1.795,0.293h1.538v-1.666l-1.806-0.391h-0.311v-8.014v-0.756v-1.025h0.286l0.152-2.972v6.991h12.167v-9.292h1.25L27.763,11.48
			L27.763,11.48z M20.659,6.517c0.24,0,0.438,0.195,0.438,0.438s-0.195,0.438-0.438,0.438S20.22,7.198,20.22,6.955
			S20.417,6.517,20.659,6.517z M25.513,23.146H15.346V8.814h2.417v0.708h5.791V8.814h1.959v2.666h-0.792v3.375h0.792V23.146z"/>
	</g>
</g>
<g>
</g>
<g>
</g>
<g>
</g>
<g>
</g>
<g>
</g>
<g>
</g>
<g>
</g>
<g>
</g>
<g>
</g>
<g>
</g>
<g>
</g>
<g>
</g>
<g>
</g>
<g>
</g>
<g>
</g>
</svg>
