<?xml version="1.0" encoding="iso-8859-1"?>
<!-- Generator: Adobe Illustrator 19.0.0, SVG Export Plug-In . SVG Version: 6.00 Build 0)  -->
<svg version="1.1" id="Capa_1" xmlns="http://www.w3.org/2000/svg" xmlns:xlink="http://www.w3.org/1999/xlink" x="0px" y="0px"
	 viewBox="0 0 512 512" style="enable-background:new 0 0 512 512;" xml:space="preserve">
<g>
	<g>
		<path d="M123.411,87.983v18.877h-15.333V87.983c0-4.864-12.019-4.847-12.019,0v49.002c0,4.926,12.019,4.969,12.019,0v-20.88
			h15.333v20.88c0,4.957,12.02,4.939,12.02,0V87.983C135.431,83.151,123.411,83.111,123.411,87.983z"/>
	</g>
</g>
<g>
	<g>
		<path d="M176.419,130.204H155.77v-13.098h11.557c1.181,0,2.081-0.463,2.697-1.387c0.616-0.925,0.925-1.978,0.925-3.159
			c0-1.283-0.322-2.389-0.963-3.313c-0.643-0.924-1.529-1.387-2.658-1.387H155.77V94.842h20.648c4.782,0,4.904-10.479,0-10.479
			H148.99c-1.439,0-2.671,0.321-3.698,0.963c-1.028,0.643-1.541,1.555-1.541,2.735v48.925c0,1.183,0.513,2.094,1.541,2.735
			c1.027,0.643,2.259,0.963,3.698,0.963h27.429C181.31,140.684,181.213,130.204,176.419,130.204z"/>
	</g>
</g>
<g>
	<g>
		<path d="M214.864,130.204h-17.567V87.983c0-4.832-12.019-4.873-12.019,0c0.518,51.579-1.225,50.011,1.541,51.737
			c1.027,0.643,2.259,0.963,3.698,0.963h24.347C219.486,140.684,219.493,130.204,214.864,130.204z"/>
	</g>
</g>
<g>
	<g>
		<path d="M252.77,130.204h-17.567V87.983c0-4.864-12.019-4.847-12.019,0c0.518,51.579-1.225,50.011,1.541,51.737
			c1.027,0.643,2.259,0.963,3.698,0.963h24.347C257.392,140.684,257.399,130.204,252.77,130.204z"/>
	</g>
</g>
<g>
	<g>
		<path d="M292.295,88.754c-3.441-2.928-8.039-4.392-13.791-4.392c-5.702,0-10.274,1.464-13.714,4.392
			c-3.442,2.928-5.163,7.525-5.163,13.791v20.418c0,6.268,1.721,10.863,5.163,13.791c3.44,2.928,8.012,4.392,13.714,4.392
			c5.752,0,10.35-1.464,13.791-4.392c3.441-2.928,5.163-7.523,5.163-13.791v-20.418C297.458,96.28,295.736,91.683,292.295,88.754z
			 M285.437,122.964c0,5.137-2.312,7.704-6.934,7.704c-4.572,0-6.857-2.567-6.857-7.704v-20.418c0-5.136,2.285-7.704,6.857-7.704
			c4.623,0,6.934,2.568,6.934,7.704V122.964z"/>
	</g>
</g>
<g>
	<g>
		<path d="M120.938,194.949c-0.555-0.479-1.251-0.719-2.089-0.719c-1.108,0-1.97,0.195-2.583,0.584c-0.615,0.39-1.281,1.229-2,2.517
			l-5.527,10.065l-5.527-10.065c-0.719-1.288-1.378-2.127-1.977-2.517c-0.6-0.389-1.453-0.584-2.561-0.584
			c-0.839,0-1.536,0.24-2.089,0.719c-0.555,0.479-0.832,1.214-0.832,2.202v28.084c0,2.462,5.842,2.437,5.842,0v-19.682l5.167,9.706
			c0.419,0.779,1.063,1.168,1.932,1.168c0.899,0,1.558-0.389,1.978-1.168l5.257-9.347v19.322c-0.001,2.487,5.84,2.417,5.84,0.001
			V197.15C121.769,196.163,121.492,195.428,120.938,194.949z"/>
	</g>
</g>
<g>
	<g>
		<path d="M144.101,206.288c-0.929-0.579-1.783-0.869-2.562-0.869c-0.809,0-1.318,0.327-1.528,0.98l-4.358,13.322l-5.392-13.322
			c-0.21-0.653-0.764-0.98-1.663-0.98c-0.809,0-1.655,0.282-2.539,0.847c-0.884,0.564-1.326,1.203-1.326,1.916
			c0,0.208,0.06,0.461,0.18,0.757l7.729,16.396c-0.149,2.347-0.906,4.025-2.268,5.036c-1.363,1.009-2.749,1.514-4.156,1.514
			c-0.989,0-1.483,0.847-1.483,2.538c0,1.034,0.225,1.723,0.674,2.068c1.266,0.968,6.204,0.652,8.582-1.665
			c0.569-0.555,1.011-1.02,1.326-1.394c1.242-1.484,2.546-5.236,3.482-7.713l6.56-16.774c0.09-0.21,0.135-0.435,0.135-0.675
			C145.494,207.527,145.029,206.866,144.101,206.288z"/>
	</g>
</g>
<g>
	<g>
		<path d="M173.487,196.027v18.063l-8.672-16.76c-0.689-1.288-1.318-2.127-1.887-2.517c-1.457-0.995-5.392-0.839-5.392,1.259v29.162
			c0,2.462,5.842,2.437,5.842,0v-18.063l9.661,18.063c1.527,2.849,6.291,2.058,6.291,0v-29.207
			C179.329,193.608,173.487,193.61,173.487,196.027z"/>
	</g>
</g>
<g>
	<g>
		<path d="M198.74,207.957c-1.588-1.663-4.015-2.494-7.279-2.494c-1.708,0-3.333,0.322-4.875,0.966
			c-1.543,0.645-2.314,1.401-2.314,2.27c0,0.719,0.18,1.378,0.54,1.978c0.359,0.6,0.838,0.898,1.438,0.898
			c0.15,0,0.704-0.254,1.663-0.764c0.958-0.51,2.112-0.765,3.46-0.765c1.348,0,2.344,0.425,2.988,1.271
			c0.644,0.848,0.966,1.841,0.966,2.98v0.602h-1.842c-3.385,0-5.976,0.48-7.773,1.441s-2.696,2.62-2.696,4.979
			c0,2.009,0.546,3.537,1.64,4.587c1.093,1.05,2.494,1.574,4.202,1.574c2.486,0,4.763-1.255,6.83-3.767v1.393
			c-0.004,2.62,5.433,2.518,5.433,0.129v-11.009C201.121,211.709,200.327,209.619,198.74,207.957z M195.326,218.806L195.326,218.806
			c-0.001,1.023-0.45,1.962-1.349,2.814c-0.898,0.852-1.827,1.278-2.786,1.278c-0.719,0-1.296-0.191-1.73-0.575
			c-0.435-0.383-0.651-0.959-0.651-1.728c0-1.079,0.517-1.797,1.55-2.152c1.034-0.355,2.464-0.532,4.292-0.532h0.674V218.806z"/>
	</g>
</g>
<g>
	<g>
		<path d="M234.822,207.936c-1.588-1.647-3.46-2.472-5.617-2.472c-1.348,0-2.628,0.386-3.842,1.156
			c-1.213,0.771-2.195,1.896-2.943,3.377c-0.479-1.359-1.221-2.455-2.224-3.286c-1.004-0.831-2.134-1.247-3.393-1.247
			c-2.667,0-4.644,1.148-5.931,3.445v-1.36c0-2.487-5.437-2.356-5.437-0.018v17.704c0,0.479,0.277,0.906,0.832,1.28
			c1.89,1.28,4.965,0.156,4.965-1.275v-10.621c0-1.254,0.344-2.239,1.034-2.957c0.688-0.717,1.512-1.075,2.471-1.075
			c0.989,0,1.85,0.373,2.584,1.12c0.733,0.747,1.101,1.718,1.101,2.912v10.666c0,2.332,5.796,2.464,5.796,0v-10.71
			c0-1.225,0.352-2.203,1.056-2.936c0.704-0.731,1.535-1.098,2.494-1.098c0.989,0,1.842,0.366,2.562,1.098
			c0.719,0.731,1.078,1.725,1.078,2.979v10.621c-0.002,0.449,0.29,0.867,0.875,1.255c2.039,1.361,4.92,0.079,4.92-1.259v-10.649
			C237.203,211.8,236.409,209.582,234.822,207.936z"/>
	</g>
</g>
<g>
	<g>
		<path d="M257.288,221.19c-0.33,0-1.049,0.285-2.157,0.854c-1.109,0.569-2.232,0.854-3.37,0.854c-1.588,0-2.861-0.396-3.819-1.19
			c-0.959-0.794-1.438-1.835-1.438-3.123v-0.674h9.121v0c2.779,0,4.179-0.671,4.179-3.961c0-2.438-0.906-4.461-2.718-6.071
			c-1.813-1.609-3.992-2.415-6.538-2.415c-2.726,0-5.048,0.884-6.965,2.651c-1.917,1.768-2.875,3.88-2.875,6.336v3.819
			c0,2.756,1.011,4.98,3.033,6.672c2.022,1.693,4.635,2.539,7.841,2.539c2.247,0,4.126-0.411,5.639-1.235
			c1.512-0.824,2.269-1.655,2.269-2.494c0-0.539-0.21-1.101-0.629-1.685C258.441,221.482,257.917,221.19,257.288,221.19z
			 M247.672,210.949c0.778-0.601,1.692-0.902,2.741-0.902c1.108,0,2.044,0.309,2.809,0.924c0.764,0.615,1.146,1.413,1.146,2.392
			c0,0.448-0.098,0.749-0.292,0.902c-0.195,0.154-0.532,0.231-1.011,0.231h-6.56v-1.176h-0.001
			C246.504,212.34,246.893,211.55,247.672,210.949z"/>
	</g>
</g>
<g>
	<g>
		<path d="M272.7,196.027v29.207c0,2.462,5.842,2.437,5.842,0v-29.207C278.542,193.602,272.7,193.613,272.7,196.027z"/>
	</g>
</g>
<g>
	<g>
		<path d="M297.744,217.678c-0.529-0.862-1.182-1.495-1.96-1.905c-0.778-0.408-1.623-0.765-2.532-1.07
			c-0.91-0.307-1.762-0.547-2.556-0.722s-1.46-0.422-2-0.743c-0.539-0.32-0.809-0.729-0.809-1.224c0-0.496,0.27-0.947,0.809-1.355
			c0.539-0.407,1.318-0.612,2.336-0.612c0.928,0,1.925,0.188,2.988,0.563c1.063,0.374,1.714,0.562,1.955,0.562
			c0.599,0,1.101-0.337,1.505-1.012c0.404-0.674,0.606-1.265,0.606-1.774c0-0.809-0.727-1.498-2.179-2.067
			c-1.453-0.568-3.108-0.854-4.965-0.854c-2.786,0-4.823,0.671-6.111,2.013c-1.289,1.341-1.932,2.94-1.932,4.8
			c0,1.341,0.366,2.441,1.101,3.301c0.734,0.859,1.625,1.472,2.674,1.836c1.048,0.364,2.089,0.678,3.123,0.939
			c1.033,0.263,1.917,0.598,2.651,1.005c0.734,0.409,1.101,0.962,1.101,1.661c0,1.254-1.106,1.88-3.32,1.88
			c-1.122,0-2.091-0.156-2.91-0.471c-0.818-0.313-1.478-0.62-1.978-0.921c-0.5-0.301-0.917-0.451-1.25-0.451
			c-0.515,0-0.97,0.292-1.364,0.877c-0.395,0.584-0.591,1.146-0.591,1.685c0,1.019,0.793,1.917,2.382,2.696
			c1.587,0.778,3.505,1.168,5.751,1.168c2.606,0,4.635-0.595,6.088-1.784c1.453-1.189,2.179-2.822,2.179-4.896
			C298.536,219.579,298.271,218.537,297.744,217.678z"/>
	</g>
</g>
<g>
	<g>
		<path d="M435.194,262.191c-3.84-1.555-8.212,0.293-9.769,4.132c-2.976,7.336-10.023,12.077-17.954,12.077
			c-5.172,0-10.042-2.018-13.708-5.674c-1.849-1.849-3.276-3.999-4.242-6.392c-1.55-3.843-5.922-5.698-9.762-4.148
			c-3.841,1.551-5.698,5.921-4.148,9.762c1.724,4.272,4.263,8.103,7.552,11.391c6.504,6.487,15.137,10.061,24.308,10.061
			c14.068,0,26.572-8.416,31.854-21.44C440.882,268.121,439.032,263.748,435.194,262.191z"/>
	</g>
</g>
<g>
	<g>
		<path d="M374.249,222.461c-4.142,0-7.5,3.357-7.5,7.5v3.206c0,4.143,3.358,7.5,7.5,7.5c4.142,0,7.5-3.357,7.5-7.5v-3.206
			C381.749,225.818,378.391,222.461,374.249,222.461z"/>
	</g>
</g>
<g>
	<g>
		<path d="M440.692,222.461c-4.142,0-7.5,3.357-7.5,7.5v3.206c0,4.143,3.358,7.5,7.5,7.5c4.142,0,7.5-3.357,7.5-7.5v-3.206
			C448.192,225.818,444.834,222.461,440.692,222.461z"/>
	</g>
</g>
<g>
	<g>
		<path d="M489.002,259.699h-15.264c-3.991,0-7.284,3.126-7.49,7.112c-0.289,5.577-1.36,11.059-3.184,16.294
			c-1.363,3.912,0.704,8.188,4.615,9.55c3.911,1.366,8.188-0.703,9.55-4.614c1.51-4.333,2.608-8.799,3.286-13.342h8.487
			c12.681,0,22.998-10.316,22.998-22.998v-7.332c0-8.495-4.632-15.922-11.5-19.905v-60.843c0-21.03-17.109-38.14-38.14-38.14h-7.842
			c-6.68-11.621-19.283-19-32.797-19H392.9v-28.43c0-17.011-13.839-30.85-30.85-30.85H102.58c-4.142,0-7.5,3.357-7.5,7.5
			s3.358,7.5,7.5,7.5h259.47c8.74,0,15.85,7.11,15.85,15.85v28.441c-32.537,0.211-59.364,24.868-63.02,56.489H15v-84.93
			c0-8.739,7.11-15.85,15.85-15.85h41.73c4.142,0,7.5-3.357,7.5-7.5s-3.358-7.5-7.5-7.5H30.85C13.84,47.201,0.001,61.039,0,78.049
			v0.001v0.001v92.431v185.372c0,17.01,13.838,30.848,30.848,30.848h258.32c4.142,0,7.5-3.357,7.5-7.5s-3.358-7.5-7.5-7.5H30.848
			C22.109,371.701,15,364.592,15,355.853V177.98h299.44v46.483c-6.867,3.983-11.499,11.41-11.499,19.904v7.332
			c0,12.682,10.317,22.998,22.998,22.998h8.482c3.61,24.331,19.011,44.632,40.099,55.147v7.305h-2.06
			c-31.917,0-58.744,23.903-62.4,55.599l-7.049,60.958c-0.33,2.816,0.561,5.645,2.444,7.762s4.59,3.331,7.425,3.331h189.18
			c2.835,0,5.542-1.214,7.425-3.331s2.774-4.945,2.445-7.75l-7.049-60.968c-3.657-31.697-30.484-55.601-62.401-55.601h-2.06v-7.31
			c6.518-3.253,12.583-7.476,17.984-12.618c3-2.855,3.117-7.604,0.26-10.604c-2.855-3-7.603-3.115-10.603-0.26
			c-10.993,10.466-25.408,16.229-40.591,16.229c-7.964,0-15.568-1.588-22.511-4.459c-0.011-0.005-0.022-0.01-0.034-0.015
			c-20.371-8.44-35.031-27.984-36.233-51.302c-0.206-3.987-3.498-7.114-7.49-7.114h-15.264c-4.41,0-7.998-3.588-7.998-7.998v-7.332
			c0-4.41,3.588-7.998,7.998-7.998h15.168c4.142,0,7.5-3.357,7.5-7.5v-20.206h48.212c26.806,0,50.029-17.2,58.19-41.978
			c7.268,9.066,11.324,20.43,11.324,32.189v29.994c0,4.143,3.358,7.5,7.5,7.5h15.169c4.41,0,7.998,3.588,7.998,7.998v7.332
			C497,256.111,493.412,259.699,489.002,259.699z M389.52,335.378c5.753,1.435,11.763,2.212,17.951,2.212
			c6.12,0,12.138-0.756,17.949-2.205v18.125c0,4.794-1.866,9.3-5.253,12.687c-3.394,3.395-7.903,5.264-12.697,5.264
			c-9.898,0-17.95-8.053-17.95-17.95V335.378z M407.469,386.46c8.8,0,17.076-3.43,23.303-9.656
			c6.221-6.221,9.646-14.493,9.646-23.294v-1.359h2.062c24.295,0,44.716,18.193,47.5,42.321l6.397,55.328H469.74v-22.3
			c0-4.143-3.358-7.5-7.5-7.5c-4.142,0-7.5,3.357-7.5,7.5v22.3H360.2v-22.3c0-4.143-3.358-7.5-7.5-7.5c-4.142,0-7.5,3.357-7.5,7.5
			v22.3h-26.638l6.398-55.33c2.783-24.126,23.203-42.319,47.499-42.319h2.06v1.359C374.519,371.678,389.3,386.46,407.469,386.46z
			 M485.5,221.369h-4.167v-22.494c0-18.737-7.971-36.695-21.872-49.269c-2.786-2.519-6.717-3.329-10.259-2.11
			c-3.545,1.218-6.153,4.274-6.804,7.978c-3.893,22.129-23.061,38.19-45.579,38.19h-55.712c-4.142,0-7.5,3.357-7.5,7.5v20.206
			h-4.167v-51.01c0-26.952,21.927-48.88,48.88-48.88h43.4c8.675,0,16.727,5.038,20.51,12.829l0.94,1.94
			c1.253,2.587,3.875,4.23,6.75,4.23h12.44c12.76,0,23.14,10.381,23.14,23.14V221.369z"/>
	</g>
</g>
<g>
</g>
<g>
</g>
<g>
</g>
<g>
</g>
<g>
</g>
<g>
</g>
<g>
</g>
<g>
</g>
<g>
</g>
<g>
</g>
<g>
</g>
<g>
</g>
<g>
</g>
<g>
</g>
<g>
</g>
</svg>
